
<svg width="1907" height="308" viewBox="0 0 1907 308" fill="none" xmlns="http://www.w3.org/2000/svg">
<path fill-rule="evenodd" clip-rule="evenodd" d="M3.40425e-09 41.5935H99.5455C101.644 41.5935 103.346 43.3172 103.346 45.4435V146.298H103.767C103.627 146.299 103.486 146.298 103.346 146.298C46.2693 146.298 3.40425e-09 99.4203 3.40425e-09 41.5935C3.40425e-09 41.5938 3.40425e-09 41.5933 3.40425e-09 41.5935Z" fill="white"/>
<path fill-rule="evenodd" clip-rule="evenodd" d="M292.6 1.76745C286.463 84.2366 218.521 149.214 135.611 149.214C127.622 149.214 119.772 148.611 112.102 147.447C118.239 64.9779 186.181 0 269.092 0C277.081 0 284.931 0.603313 292.6 1.76745Z" fill="white"/>
<path fill-rule="evenodd" clip-rule="evenodd" d="M112.1 160.553C118.237 243.022 186.179 308 269.09 308C277.078 308 284.928 307.397 292.598 306.233C286.461 223.764 218.519 158.786 135.608 158.786C127.619 158.786 119.769 159.389 112.1 160.553Z" fill="white"/>
<path fill-rule="evenodd" clip-rule="evenodd" d="M0 265.615H99.5455C101.644 265.615 103.346 263.891 103.346 261.765V160.911C46.2696 160.911 0.000442628 207.788 0 265.615Z" fill="white"/>
<path d="M418.168 226.995L473.578 143.127L473.793 146.792L422.912 69.6071H456.976L491.041 122.429H495.569L529.418 69.6071H562.189L510.661 147.439L510.23 143.774L566.932 226.995H533.083L493.413 167.921H488.885L450.94 226.995H418.168ZM634.498 231.092C624.436 231.092 615.597 229.367 607.979 225.917C600.505 222.468 594.252 217.868 589.222 212.119C584.335 206.226 580.598 199.686 578.011 192.499C575.567 185.312 574.345 177.982 574.345 170.508V166.412C574.345 158.65 575.567 151.176 578.011 143.989C580.598 136.659 584.335 130.191 589.222 124.585C594.252 118.836 600.433 114.308 607.763 111.002C615.094 107.553 623.574 105.828 633.204 105.828C645.853 105.828 656.417 108.631 664.897 114.236C673.521 119.698 679.989 126.957 684.301 136.012C688.613 144.923 690.769 154.554 690.769 164.902V175.682H587.066V157.356H672.012L662.741 166.412C662.741 158.937 661.663 152.541 659.507 147.223C657.351 141.905 654.046 137.809 649.59 134.934C645.278 132.059 639.816 130.622 633.204 130.622C626.592 130.622 620.987 132.131 616.387 135.15C611.788 138.168 608.266 142.552 605.823 148.301C603.523 153.907 602.373 160.662 602.373 168.568C602.373 175.898 603.523 182.438 605.823 188.187C608.123 193.793 611.644 198.248 616.387 201.554C621.131 204.716 627.167 206.298 634.498 206.298C641.828 206.298 647.793 204.86 652.393 201.986C656.992 198.967 659.939 195.302 661.232 190.99H688.829C687.104 199.039 683.798 206.082 678.911 212.119C674.024 218.156 667.772 222.827 660.154 226.133C652.68 229.439 644.128 231.092 634.498 231.092ZM715.804 226.995V109.924H739.52V160.159H737.364C737.364 148.229 738.945 138.312 742.107 130.406C745.27 122.357 749.941 116.32 756.121 112.296C762.446 108.271 770.279 106.259 779.622 106.259H780.915C794.858 106.259 805.422 110.787 812.609 119.842C819.795 128.753 823.389 142.121 823.389 159.944V226.995H793.42V157.356C793.42 150.17 791.336 144.348 787.168 139.893C783.143 135.437 777.538 133.209 770.351 133.209C763.021 133.209 757.056 135.509 752.456 140.108C748.001 144.564 745.773 150.601 745.773 158.219V226.995H715.804ZM904.117 230.876C895.925 230.876 888.379 229.367 881.479 226.348C874.58 223.33 868.615 219.09 863.585 213.628C858.554 208.166 854.673 201.842 851.942 194.655C849.211 187.325 847.846 179.419 847.846 170.939V166.412C847.846 158.075 849.139 150.242 851.727 142.911C854.458 135.581 858.195 129.185 862.938 123.723C867.825 118.261 873.646 114.021 880.401 111.002C887.301 107.84 894.918 106.259 903.255 106.259C912.454 106.259 920.503 108.271 927.402 112.296C934.445 116.177 940.051 122.07 944.219 129.975C948.387 137.88 950.687 147.798 951.118 159.728L942.279 149.379V69.6071H972.247V226.995H948.531V177.192H953.705C953.274 189.121 950.831 199.111 946.375 207.16C941.919 215.065 936.026 221.03 928.696 225.055C921.509 228.936 913.316 230.876 904.117 230.876ZM910.801 205.651C916.694 205.651 922.084 204.357 926.971 201.77C931.858 199.039 935.739 195.158 938.613 190.128C941.632 184.953 943.141 178.916 943.141 172.017V163.393C943.141 156.494 941.632 150.745 938.613 146.145C935.595 141.402 931.642 137.809 926.755 135.365C921.868 132.778 916.55 131.484 910.801 131.484C904.333 131.484 898.584 133.065 893.553 136.228C888.666 139.246 884.785 143.558 881.911 149.164C879.18 154.769 877.814 161.309 877.814 168.783C877.814 176.257 879.252 182.797 882.126 188.403C885.001 193.865 888.882 198.105 893.769 201.123C898.799 204.142 904.477 205.651 910.801 205.651ZM1079.66 231.092C1065.43 231.092 1053.22 228.576 1043.01 223.546C1032.81 218.515 1024.47 211.975 1018 203.926C1011.68 195.877 1007.01 187.109 1003.99 177.623C1000.97 168.136 999.46 159.009 999.46 150.242V145.498C999.46 135.724 1000.97 126.094 1003.99 116.608C1007.15 107.122 1011.96 98.4975 1018.43 90.7359C1024.9 82.9743 1033.09 76.7938 1043.01 72.1943C1053.07 67.4511 1064.93 65.0795 1078.59 65.0795C1092.81 65.0795 1105.18 67.6667 1115.67 72.8411C1126.3 77.8718 1134.78 85.0584 1141.11 94.4011C1147.43 103.6 1151.24 114.38 1152.54 126.741H1121.71C1120.56 119.554 1117.97 113.518 1113.94 108.631C1110.06 103.6 1105.1 99.863 1099.07 97.4195C1093.03 94.8323 1086.2 93.5387 1078.59 93.5387C1070.82 93.5387 1063.92 94.9042 1057.89 97.6351C1051.85 100.222 1046.82 103.959 1042.8 108.846C1038.77 113.733 1035.68 119.483 1033.52 126.094C1031.51 132.706 1030.51 140.036 1030.51 148.086C1030.51 155.847 1031.51 163.034 1033.52 169.646C1035.68 176.257 1038.84 182.078 1043.01 187.109C1047.18 191.996 1052.28 195.805 1058.32 198.536C1064.5 201.267 1071.61 202.632 1079.66 202.632C1091.45 202.632 1101.37 199.758 1109.42 194.008C1117.61 188.115 1122.57 179.922 1124.29 169.43H1155.12C1153.69 180.641 1149.88 190.918 1143.7 200.261C1137.52 209.603 1129.04 217.078 1118.26 222.683C1107.48 228.289 1094.61 231.092 1079.66 231.092ZM1249.52 226.995V192.284H1244.56V153.691C1244.56 146.936 1242.91 141.905 1239.6 138.599C1236.3 135.293 1231.19 133.64 1224.29 133.64C1220.7 133.64 1216.39 133.712 1211.36 133.856C1206.33 134 1201.22 134.215 1196.05 134.503C1191.02 134.646 1186.49 134.862 1182.47 135.15V109.709C1185.77 109.421 1189.51 109.134 1193.68 108.846C1197.85 108.559 1202.09 108.415 1206.4 108.415C1210.85 108.271 1215.02 108.2 1218.9 108.2C1230.98 108.2 1240.97 109.781 1248.87 112.943C1256.92 116.105 1262.96 121.064 1266.98 127.819C1271.15 134.575 1273.23 143.414 1273.23 154.338V226.995H1249.52ZM1211.79 230.014C1203.31 230.014 1195.83 228.504 1189.37 225.486C1183.04 222.468 1178.08 218.156 1174.49 212.55C1171.04 206.944 1169.32 200.189 1169.32 192.284C1169.32 183.66 1171.4 176.617 1175.57 171.155C1179.88 165.693 1185.84 161.596 1193.46 158.866C1201.22 156.135 1210.28 154.769 1220.63 154.769H1247.79V172.664H1220.2C1213.3 172.664 1207.98 174.389 1204.24 177.838C1200.65 181.144 1198.85 185.456 1198.85 190.774C1198.85 196.092 1200.65 200.404 1204.24 203.71C1207.98 207.016 1213.3 208.669 1220.2 208.669C1224.37 208.669 1228.17 207.95 1231.62 206.513C1235.22 204.932 1238.16 202.345 1240.46 198.752C1242.91 195.014 1244.27 189.984 1244.56 183.66L1251.89 192.068C1251.17 200.261 1249.16 207.16 1245.85 212.766C1242.69 218.371 1238.24 222.683 1232.49 225.702C1226.88 228.576 1219.98 230.014 1211.79 230.014ZM1305.34 226.995V109.924H1329.05V160.159H1326.9C1326.9 148.373 1328.4 138.527 1331.42 130.622C1334.44 122.573 1338.9 116.536 1344.79 112.512C1350.83 108.343 1358.3 106.259 1367.21 106.259H1368.51C1377.56 106.259 1385.04 108.343 1390.93 112.512C1396.97 116.536 1401.42 122.573 1404.3 130.622C1407.31 138.527 1408.82 148.373 1408.82 160.159H1401.28C1401.28 148.373 1402.79 138.527 1405.81 130.622C1408.97 122.573 1413.49 116.536 1419.39 112.512C1425.42 108.343 1432.9 106.259 1441.81 106.259H1443.1C1452.16 106.259 1459.71 108.343 1465.74 112.512C1471.78 116.536 1476.31 122.573 1479.32 130.622C1482.49 138.527 1484.07 148.373 1484.07 160.159V226.995H1454.1V157.356C1454.1 150.026 1452.23 144.205 1448.49 139.893C1444.76 135.437 1439.44 133.209 1432.54 133.209C1425.64 133.209 1420.11 135.509 1415.94 140.108C1411.77 144.564 1409.69 150.601 1409.69 158.219V226.995H1379.72V157.356C1379.72 150.026 1377.85 144.205 1374.11 139.893C1370.37 135.437 1365.06 133.209 1358.16 133.209C1351.26 133.209 1345.72 135.509 1341.56 140.108C1337.39 144.564 1335.3 150.601 1335.3 158.219V226.995H1305.34ZM1516.09 270.115V109.924H1539.81V160.375L1536.14 160.159C1536.72 148.229 1539.16 138.24 1543.47 130.191C1547.93 122.142 1553.82 116.177 1561.15 112.296C1568.48 108.271 1576.68 106.259 1585.73 106.259C1594.07 106.259 1601.54 107.768 1608.15 110.787C1614.91 113.805 1620.66 118.045 1625.4 123.507C1630.29 128.969 1634.03 135.365 1636.61 142.696C1639.2 149.882 1640.49 157.644 1640.49 165.98V170.508C1640.49 178.988 1639.2 186.894 1636.61 194.224C1634.17 201.411 1630.5 207.807 1625.62 213.412C1620.87 218.874 1615.13 223.186 1608.37 226.348C1601.61 229.367 1594.07 230.876 1585.73 230.876C1576.96 230.876 1568.91 229.079 1561.58 225.486C1554.4 221.749 1548.58 216.071 1544.12 208.454C1539.67 200.692 1537.15 190.702 1536.57 178.485L1546.06 192.93V270.115H1516.09ZM1578.19 205.651C1584.65 205.651 1590.26 204.07 1595 200.908C1599.89 197.745 1603.7 193.362 1606.43 187.756C1609.16 182.007 1610.53 175.539 1610.53 168.352C1610.53 160.878 1609.16 154.41 1606.43 148.948C1603.7 143.486 1599.89 139.246 1595 136.228C1590.26 133.065 1584.65 131.484 1578.19 131.484C1572.29 131.484 1566.83 132.778 1561.8 135.365C1556.91 137.952 1552.89 141.761 1549.73 146.792C1546.71 151.823 1545.2 157.859 1545.2 164.902V173.526C1545.2 180.282 1546.78 186.031 1549.94 190.774C1553.1 195.518 1557.2 199.183 1562.23 201.77C1567.26 204.357 1572.58 205.651 1578.19 205.651ZM1706.73 230.66C1693.22 230.66 1682.73 226.205 1675.25 217.293C1667.92 208.382 1664.26 195.158 1664.26 177.623V109.709H1694.23V180.21C1694.23 187.397 1696.24 193.146 1700.26 197.458C1704.29 201.626 1709.75 203.71 1716.65 203.71C1723.55 203.71 1729.15 201.482 1733.46 197.027C1737.92 192.571 1740.15 186.534 1740.15 178.916V109.709H1770.12V226.995H1746.4V177.192H1748.77C1748.77 188.978 1747.26 198.823 1744.24 206.729C1741.23 214.634 1736.7 220.599 1730.66 224.624C1724.63 228.648 1717.08 230.66 1708.02 230.66H1706.73ZM1847.02 230.66C1830.92 230.66 1818.27 227.283 1809.07 220.527C1800.01 213.628 1795.27 204.142 1794.84 192.068H1821.79C1822.22 196.092 1824.45 199.758 1828.47 203.064C1832.5 206.369 1838.82 208.022 1847.45 208.022C1854.63 208.022 1860.31 206.729 1864.48 204.142C1868.79 201.554 1870.95 198.033 1870.95 193.577C1870.95 189.696 1869.29 186.606 1865.99 184.306C1862.83 182.007 1857.36 180.497 1849.6 179.779L1839.25 178.701C1826.17 177.263 1816.11 173.526 1809.07 167.49C1802.03 161.453 1798.51 153.404 1798.51 143.342C1798.51 135.293 1800.52 128.538 1804.54 123.076C1808.57 117.614 1814.1 113.518 1821.14 110.787C1828.33 107.912 1836.52 106.475 1845.72 106.475C1860.1 106.475 1871.74 109.637 1880.65 115.961C1889.56 122.285 1894.23 131.556 1894.66 143.774H1867.71C1867.43 139.749 1865.41 136.299 1861.68 133.425C1857.94 130.55 1852.55 129.113 1845.51 129.113C1839.18 129.113 1834.29 130.334 1830.85 132.778C1827.4 135.221 1825.67 138.384 1825.67 142.264C1825.67 146.001 1827.04 148.876 1829.77 150.888C1832.64 152.901 1837.24 154.266 1843.57 154.985L1853.91 156.063C1867.71 157.5 1878.49 161.309 1886.25 167.49C1894.16 173.67 1898.11 182.007 1898.11 192.499C1898.11 200.261 1895.96 207.016 1891.64 212.766C1887.48 218.371 1881.58 222.755 1873.97 225.917C1866.35 229.079 1857.36 230.66 1847.02 230.66Z" fill="white"/>
</svg>
